HIERARCHY
ROOT hip
{
  OFFSET 0 0 0
  CHANNELS 6 Xposition Yposition Zposition Zrotation Yrotation Xrotation
  JOINT abdomen
  {
    OFFSET 0 20.6881 -0.73152
    CHANNELS 3 Zrotation Xrotation Yrotation
    JOINT chest
    {
      OFFSET 0 11.7043 -0.48768
      CHANNELS 3 Zrotation Xrotation Yrotation
      JOINT neck
      {
        OFFSET 0 22.1894 -2.19456
        CHANNELS 3 Zrotation Xrotation Yrotation
        JOINT head
        {
          OFFSET -0.24384 7.07133 1.2192
          CHANNELS 3 Zrotation Xrotation Yrotation
          JOINT leftEye
          {
            OFFSET 4.14528 8.04674 8.04672
            CHANNELS 3 Zrotation Xrotation Yrotation
            End Site
            {
              OFFSET 1 0 0
            }
          }
          JOINT rightEye
          {
            OFFSET -3.6576 8.04674 8.04672
            CHANNELS 3 Zrotation Xrotation Yrotation
            End Site
            {
              OFFSET 1 0 0
            }
          }
        }
      }
      JOINT rCollar
      {
        OFFSET -2.68224 19.2634 -4.8768
        CHANNELS 3 Zrotation Xrotation Yrotation
        JOINT rShldr
        {
          OFFSET -8.77824 -1.95073 1.46304
          CHANNELS 3 Zrotation Xrotation Yrotation
          JOINT rForeArm
          {
            OFFSET -28.1742 -1.7115 0.48768
            CHANNELS 3 Zrotation Xrotation Yrotation
            JOINT rHand
            {
              OFFSET -22.5879 0.773209 7.07136
              CHANNELS 3 Zrotation Xrotation Yrotation
              JOINT rThumb1
              {
                OFFSET -1.2192 -0.487915 3.41376
                CHANNELS 3 Zrotation Xrotation Yrotation
                JOINT rThumb2
                {
                  OFFSET -3.37035 -0.52449 3.41376
                  CHANNELS 3 Zrotation Xrotation Yrotation
                  End Site
                  {
                    OFFSET -1.78271 -1.18214 1.43049
                  }
                }
              }
              JOINT rIndex1
              {
                OFFSET -7.75947 0.938293 5.60832
                CHANNELS 3 Zrotation Xrotation Yrotation
                JOINT rIndex2
                {
                  OFFSET -2.54057 -0.884171 1.56538
                  CHANNELS 3 Zrotation Xrotation Yrotation
                  End Site
                  {
                    OFFSET -1.62519 -0.234802 1.16502
                  }
                }
              }
              JOINT rMid1
              {
                OFFSET -8.24714 1.18213 3.41376
                CHANNELS 3 Zrotation Xrotation Yrotation
                JOINT rMid2
                {
                  OFFSET -3.10165 -0.590103 1.0647
                  CHANNELS 3 Zrotation Xrotation Yrotation
                  End Site
                  {
                    OFFSET -2.48547 -0.328903 0.83742
                  }
                }
              }
              JOINT rRing1
              {
                OFFSET -8.82822 0.546677 1.51678
                CHANNELS 3 Zrotation Xrotation Yrotation
                JOINT rRing2
                {
                  OFFSET -2.60934 -0.819778 -0.0198488
                  CHANNELS 3 Zrotation Xrotation Yrotation
                  End Site
                  {
                    OFFSET -2.33842 -0.294052 0.168128
                  }
                }
              }
              JOINT rPinky1
              {
                OFFSET -8.27202 -0.0477905 -0.4584
                CHANNELS 3 Zrotation Xrotation Yrotation
                JOINT rPinky2
                {
                  OFFSET -1.82734 -0.647385 -0.700984
                  CHANNELS 3 Zrotation Xrotation Yrotation
                  End Site
                  {
                    OFFSET -1.69225 -0.51767 -0.607171
                  }
                }
              }
            }
          }
        }
      }
      JOINT lCollar
      {
        OFFSET 2.68224 19.2634 -4.8768
        CHANNELS 3 Zrotation Xrotation Yrotation
        JOINT lShldr
        {
          OFFSET 8.77824 -1.95073 1.46304
          CHANNELS 3 Zrotation Xrotation Yrotation
          JOINT lForeArm
          {
            OFFSET 28.1742 -1.7115 0.48768
            CHANNELS 3 Zrotation Xrotation Yrotation
            JOINT lHand
            {
              OFFSET 22.5879 0.773209 7.07136
              CHANNELS 3 Zrotation Xrotation Yrotation
              JOINT lThumb1
              {
                OFFSET 1.2192 -0.487915 3.41376
                CHANNELS 3 Zrotation Xrotation Yrotation
                JOINT lThumb2
                {
                  OFFSET 3.37035 -0.52449 3.41376
                  CHANNELS 3 Zrotation Xrotation Yrotation
                  End Site
                  {
                    OFFSET 1.78271 -1.18214 1.43049
                  }
                }
              }
              JOINT lIndex1
              {
                OFFSET 7.75947 0.938293 5.60832
                CHANNELS 3 Zrotation Xrotation Yrotation
                JOINT lIndex2
                {
                  OFFSET 2.54057 -0.884171 1.56538
                  CHANNELS 3 Zrotation Xrotation Yrotation
                  End Site
                  {
                    OFFSET 1.62519 -0.234802 1.16502
                  }
                }
              }
              JOINT lMid1
              {
                OFFSET 8.24714 1.18213 3.41376
                CHANNELS 3 Zrotation Xrotation Yrotation
                JOINT lMid2
                {
                  OFFSET 3.10165 -0.590103 1.0647
                  CHANNELS 3 Zrotation Xrotation Yrotation
                  End Site
                  {
                    OFFSET 2.48547 -0.328903 0.83742
                  }
                }
              }
              JOINT lRing1
              {
                OFFSET 8.82822 0.546677 1.51678
                CHANNELS 3 Zrotation Xrotation Yrotation
                JOINT lRing2
                {
                  OFFSET 2.60934 -0.819778 -0.0198488
                  CHANNELS 3 Zrotation Xrotation Yrotation
                  End Site
                  {
                    OFFSET 2.33842 -0.294052 0.168128
                  }
                }
              }
              JOINT lPinky1
              {
                OFFSET 8.27202 -0.0477905 -0.4584
                CHANNELS 3 Zrotation Xrotation Yrotation
                JOINT lPinky2
                {
                  OFFSET 1.82734 -0.647385 -0.700984
                  CHANNELS 3 Zrotation Xrotation Yrotation
                  End Site
                  {
                    OFFSET 1.69225 -0.51767 -0.607171
                  }
                }
              }
            }
          }
        }
      }
    }
  }
  JOINT rButtock
  {
    OFFSET -8.77824 4.35084 1.2192
    CHANNELS 3 Zrotation Xrotation Yrotation
    JOINT rThigh
    {
      OFFSET 0 -1.70687 -2.19456
      CHANNELS 3 Zrotation Xrotation Yrotation
      JOINT rShin
      {
        OFFSET 0 -36.8199 0.73152
        CHANNELS 3 Zrotation Xrotation Yrotation
        JOINT rFoot
        {
          OFFSET 0.73152 -45.1104 -5.12064
          CHANNELS 3 Zrotation Xrotation Yrotation
          End Site
          {
            OFFSET -1.1221 -3.69964 12.103
          }
        }
      }
    }
  }
  JOINT lButtock
  {
    OFFSET 8.77824 4.35084 1.2192
    CHANNELS 3 Zrotation Xrotation Yrotation
    JOINT lThigh
    {
      OFFSET 0 -1.70687 -2.19456
      CHANNELS 3 Zrotation Xrotation Yrotation
      JOINT lShin
      {
        OFFSET 0 -36.8199 0.73152
        CHANNELS 3 Zrotation Xrotation Yrotation
        JOINT lFoot
        {
          OFFSET -0.73152 -45.1104 -5.12064
          CHANNELS 3 Zrotation Xrotation Yrotation
          End Site
          {
            OFFSET 1.1221 -3.69964 12.103
          }
        }
      }
    }
  }
}
MOTION
Frames:	4
Frame Time:	0.00833333
221.679 74.2993 -81.4633 -171.239 123.773 -172.784 -4.42053 13.5222 14.6266 -0.154081 -1.34401 4.0304 0.679589 -3.52431 -4.72496 16.2154 0.83508 -9.11626 -0.0 0.0 0.0 -0.0 0.0 0.0 -2.32184e-13 1.0148e-12 1.46355e-13 50.604 47.273 13.012 -27.376 -42.9178 89.3302 -0.720977 -23.3803 -3.48345 -3.67878e-10 -2.03785e-10 -7.61584e-10 -6.25631e-10 -3.50892e-10 -1.31991e-09 -3.67875e-10 -2.03784e-10 -7.6159e-10 7.73091 5.47488 0.417314 -3.67879e-10 -2.03784e-10 -7.61587e-10 2.90554 0.965183 0.102902 -3.67868e-10 -2.03785e-10 -7.61581e-10 10.2786 0.731801 0.0259123 -3.6788e-10 -2.03782e-10 -7.61577e-10 2.22167 -0.733487 -0.20892 -2.32192e-13 1.01479e-12 1.46206e-13 -96.5432 41.1406 45.0728 20.092 -13.1279 -38.9036 0.363988 -16.9084 2.44853 1.76141e-09 -1.00856e-09 -4.61285e-10 3.0483e-09 -1.73576e-09 -7.77079e-10 1.7614e-09 -1.00855e-09 -4.61282e-10 -7.73091 5.47488 -0.417314 1.76141e-09 -1.00855e-09 -4.61279e-10 -2.90554 0.965183 -0.102902 1.7614e-09 -1.00855e-09 -4.61278e-10 -10.2786 0.731801 -0.0259123 1.76141e-09 -1.00856e-09 -4.61285e-10 -2.22167 -0.733487 0.20892 -2.03217e-16 0.0 -3.88251e-19 8.19661 11.4026 9.2369 -0.406164 47.3863 1.43992 0.399873 -9.16533 4.98837 2.03217e-16 0.0 3.88251e-19 15.2558 -32.3041 -5.3724 0.195882 29.3321 -0.379716 0.0221567 -0.757965 -1.85574
222.814 74.4373 -81.0902 -170.06 124.327 -172.404 -6.21591 14.1806 14.7834 0.117272 -1.45851 4.00733 0.696297 -3.67403 -4.56652 15.8273 0.666419 -8.81544 -0.0 0.0 0.0 -0.0 0.0 0.0 -2.90186e-13 1.15617e-12 1.9123e-13 53.1272 47.2531 11.3632 -27.6429 -42.0282 87.6338 -0.70079 -23.0361 -3.42709 -5.2704e-10 -3.6014e-10 -1.35666e-09 -8.90897e-10 -6.2075e-10 -2.34919e-09 -5.27037e-10 -3.60139e-10 -1.35667e-09 7.73091 5.47488 0.417314 -5.2704e-10 -3.60139e-10 -1.35667e-09 2.90554 0.965183 0.102902 -5.27029e-10 -3.60139e-10 -1.35666e-09 10.2786 0.731801 0.0259123 -5.27042e-10 -3.60136e-10 -1.35666e-09 2.22167 -0.733487 -0.20892 -2.90246e-13 1.15615e-12 1.91091e-13 -94.5647 41.722 41.9736 19.8032 -12.7674 -38.2011 0.322751 -16.0169 2.31145 2.52448e-09 -1.35755e-09 -6.3514e-10 4.36772e-09 -2.33569e-09 -1.0706e-09 2.52447e-09 -1.35755e-09 -6.35137e-10 -7.73091 5.47488 -0.417314 2.52447e-09 -1.35755e-09 -6.35135e-10 -2.90554 0.965183 -0.102902 2.52447e-09 -1.35755e-09 -6.35134e-10 -10.2786 0.731801 -0.0259123 2.52448e-09 -1.35755e-09 -6.35142e-10 -2.22167 -0.733487 0.20892 -2.03217e-16 0.0 -3.88251e-19 6.23044 9.86953 8.77227 -0.51331 50.6751 1.53407 0.314466 -7.11123 5.35126 2.03217e-16 0.0 3.88251e-19 13.9156 -31.2181 -4.70006 0.200786 29.6744 -0.356447 0.00777488 -1.15397 -1.74451
223.974 74.686 -80.8369 -167.066 125.336 -170.317 -8.28358 14.9633 14.9976 0.425634 -1.62301 3.98632 0.704544 -3.79762 -4.3845 15.3507 0.419919 -8.45944 -0.0 0.0 0.0 -0.0 0.0 0.0 -3.24836e-13 1.3767e-12 1.51918e-13 55.6017 47.2422 9.85213 -27.8712 -40.8785 85.733 -0.700631 -23.0215 -3.42495 -6.79555e-10 -5.49583e-10 -1.81395e-09 -1.14733e-09 -9.47552e-10 -3.14098e-09 -6.79553e-10 -5.4958e-10 -1.81396e-09 7.73091 5.47488 0.417314 -6.79556e-10 -5.4958e-10 -1.81396e-09 2.90554 0.965183 0.102902 -6.79544e-10 -5.4958e-10 -1.81396e-09 10.2786 0.731801 0.0259123 -6.79557e-10 -5.49578e-10 -1.81395e-09 2.22167 -0.733487 -0.20892 -3.24985e-13 1.37669e-12 1.51778e-13 -92.4468 42.2332 38.6376 19.4974 -12.3938 -37.4687 0.275205 -14.8566 2.13558 2.92831e-09 -1.51586e-09 -7.4923e-10 5.06595e-09 -2.60905e-09 -1.26697e-09 2.9283e-09 -1.51586e-09 -7.49227e-10 -7.73091 5.47488 -0.417314 2.9283e-09 -1.51586e-09 -7.49227e-10 -2.90554 0.965183 -0.102902 2.9283e-09 -1.51586e-09 -7.49226e-10 -10.2786 0.731801 -0.0259123 2.92831e-09 -1.51586e-09 -7.49236e-10 -2.22167 -0.733487 0.20892 -2.03217e-16 0.0 -3.88251e-19 3.98411 8.25792 8.20957 -0.638232 53.92 1.6417 0.253172 -5.48931 5.66029 2.03217e-16 0.0 3.88251e-19 12.4774 -29.701 -3.8571 0.201003 29.4694 -0.321861 -0.025353 -1.43846 -1.86494
225.146 74.9298 -80.5365 -164.722 126.326 -168.691 -10.2443 15.7128 15.1535 0.702828 -1.7762 3.95012 0.720048 -3.93673 -4.17257 14.8707 0.22964 -8.05347 -0.0 0.0 0.0 -0.0 0.0 0.0 -3.45326e-13 1.54206e-12 1.09825e-13 57.9992 47.1593 8.55691 -28.0854 -39.5856 83.5007 -0.69919 -23.0132 -3.42317 -8.05286e-10 -6.27633e-10 -2.25814e-09 -1.35836e-09 -1.08162e-09 -3.91e-09 -8.05284e-10 -6.27628e-10 -2.25815e-09 7.73091 5.47488 0.417314 -8.05286e-10 -6.27627e-10 -2.25815e-09 2.90554 0.965183 0.102902 -8.05274e-10 -6.27627e-10 -2.25814e-09 10.2786 0.731801 0.0259123 -8.05288e-10 -6.27626e-10 -2.25813e-09 2.22167 -0.733487 -0.20892 -3.45557e-13 1.54206e-12 1.09679e-13 -90.2967 42.6884 35.1708 19.1822 -12.0175 -36.7267 0.231113 -13.6197 1.95082 3.15512e-09 -1.55548e-09 -7.57298e-10 5.45763e-09 -2.67864e-09 -1.28276e-09 3.15511e-09 -1.55547e-09 -7.57296e-10 -7.73091 5.47488 -0.417314 3.15512e-09 -1.55548e-09 -7.57299e-10 -2.90554 0.965183 -0.102902 3.15511e-09 -1.55548e-09 -7.57298e-10 -10.2786 0.731801 -0.0259123 3.15513e-09 -1.55548e-09 -7.57309e-10 -2.22167 -0.733487 0.20892 -2.03217e-16 0.0 -3.88251e-19 1.81178 6.5055 7.55179 -0.780039 56.9907 1.76319 0.210951 -4.35808 5.80931 2.03217e-16 0.0 3.88251e-19 11.0952 -28.0187 -3.06188 0.198553 28.9801 -0.284548 -0.0551767 -1.71131 -1.97212
